<svg width="370" height="154" viewBox="0 0 370 154" fill="none" xmlns="http://www.w3.org/2000/svg">
<rect width="370" height="154" rx="18" fill="#82B4E1"/>
<path d="M27 117.916C27 121.544 28.5473 124.425 31.6418 126.559C33.3492 127.52 35.1632 128 37.084 128C38.5779 128 40.0718 127.627 41.5658 126.88L122.398 86.5436C123.998 85.6899 125.332 84.4628 126.399 82.8621C127.466 81.2615 127.947 79.4474 127.84 77.42C127.733 75.3925 127.253 73.6318 126.399 72.1379C125.546 70.644 124.212 69.4168 122.398 68.4564L41.5658 28.1204C40.0718 27.3735 38.5779 27 37.084 27C35.2699 27 33.4559 27.4802 31.6418 28.4406C28.5473 30.468 27 33.3492 27 37.084V117.916Z" fill="white"/>
</svg>
