<svg width="201" height="201" viewBox="0 0 201 201" fill="none" xmlns="http://www.w3.org/2000/svg">
<circle cx="100.5" cy="100.5" r="91.5" fill="#282C6E"/>
<g clip-path="url(#clip0_2051_6)">
<path d="M137.153 164.056C172.307 143.759 184.352 98.8074 164.056 63.6529C143.759 28.4984 98.8074 16.4535 63.6529 36.75C28.4984 57.0465 16.4535 101.998 36.75 137.153C57.0465 172.307 101.998 184.352 137.153 164.056Z" fill="#FABF1A"/>
<path d="M52.9695 94.9719L50.5079 94.955L50.461 101.489L38.6014 101.405L38.5805 104.104L52.9017 104.205L52.9695 94.9719Z" fill="#282C6E"/>
<path d="M41.7889 91.5725C42.1296 91.3051 42.3458 90.9445 42.4375 90.4908C42.519 90.0194 42.4386 89.5943 42.1888 89.2434C41.9391 88.8926 41.5962 88.6662 41.0969 88.5772C40.6255 88.4958 40.2005 88.5762 39.8598 88.8436C39.5089 89.0933 39.3029 89.4716 39.2214 89.9429C39.1474 90.3864 39.2278 90.8115 39.4599 91.1726C39.7022 91.5514 40.0627 91.7676 40.5518 91.8389C41.0409 91.9101 41.4659 91.8297 41.8066 91.5623L41.7889 91.5725Z" fill="#282C6E"/>
<path d="M43.8308 89.4225L43.3992 91.9586L53.4024 93.6613L53.834 91.1252L43.8308 89.4225Z" fill="#282C6E"/>
<path d="M45.1263 84.082L44.332 86.5445L46.3557 87.1914L47.1501 84.7289L54.7886 87.1792L55.5829 84.7167L47.9444 82.2664L48.7537 79.7481L46.73 79.1012L45.9309 81.6372L44.569 81.1976C44.1861 81.0651 44.0533 80.8352 44.1505 80.4726L44.69 78.7938L42.6663 78.1469L41.857 80.6652C41.6572 81.2992 41.6826 81.8739 41.9609 82.3969C42.2393 82.9198 42.6917 83.2952 43.3536 83.5024L45.144 84.0718L45.1263 84.082Z" fill="#282C6E"/>
<path d="M51.935 75.9075C51.5689 75.6001 51.3546 75.2288 51.2565 74.814C51.1584 74.3991 51.2575 73.9175 51.5893 73.3488C51.921 72.78 52.2665 72.4391 52.699 72.3309C53.1139 72.2328 53.5193 72.2816 53.9458 72.5304L54.4384 72.8119L53.074 75.2262C52.7022 75.8889 52.4671 76.5433 52.3863 77.1793C52.3056 77.8153 52.3765 78.3873 52.627 78.9028C52.8775 79.4182 53.2973 79.8596 53.8939 80.1988C54.4905 80.538 55.0939 80.6847 55.6761 80.6315C56.2583 80.5782 56.8221 80.3706 57.3117 79.9936C57.8013 79.6166 58.2474 79.1234 58.594 78.4989C58.9407 77.8743 59.1283 77.3417 59.1465 76.8833C59.1647 76.4248 59.115 76.0528 58.987 75.7495C58.8413 75.4563 58.7188 75.2442 58.6195 75.1129L58.818 74.7626C59.1786 74.9787 59.5459 75.0024 59.9199 74.8336C60.2939 74.6648 60.6142 74.362 60.863 73.9355L61.6971 72.4402L59.8413 71.3899L59.4443 72.0906C59.2532 72.4131 58.9928 72.4928 58.6322 72.2766L55.3368 70.4071C54.23 69.7967 53.196 69.6392 52.2378 69.9803C51.2795 70.3214 50.4649 71.0746 49.8042 72.2576C49.3745 73.0243 49.1244 73.7345 49.0539 74.3882C48.9834 75.0419 49.0468 75.6418 49.2517 76.16C49.439 76.6884 49.7323 77.1556 50.0936 77.5364L51.9601 75.8694L51.935 75.9075ZM56.2664 73.8547C56.8528 74.1762 57.1916 74.6407 57.3286 75.2453C57.4553 75.8322 57.3364 76.4431 56.9721 77.0778C56.7083 77.5601 56.4057 77.8527 56.067 78.0011C55.7181 78.1318 55.3964 78.1054 55.0563 77.9246C54.744 77.7512 54.5453 77.4887 54.516 77.1521C54.4689 76.8256 54.5735 76.4351 54.8047 76.0188L56.0861 73.7466L56.2664 73.8547Z" fill="#282C6E"/>
<path d="M55.3931 67.6871L57.0583 65.712L63.2121 70.8583L64.8772 68.8832L58.7234 63.7369L60.4211 61.6958L58.7842 60.3306L57.0864 62.3716L55.9883 61.4497C55.6706 61.1852 55.6542 60.9118 55.8833 60.6144L57.0093 59.2571L55.3723 57.8919L53.6746 59.9329C53.2387 60.4439 53.0614 60.9942 53.1146 61.5764C53.1679 62.1586 53.4639 62.6714 54.0028 63.1147L55.4567 64.3263L53.8092 66.2912L55.4462 67.6565L55.3931 67.6871Z" fill="#282C6E"/>
<path d="M73.1529 58.6358C72.8653 58.8726 72.5789 58.8257 72.3217 58.5027L69.9585 55.5529C69.1766 54.5662 68.2678 54.0536 67.2495 54.005C66.2313 53.9563 65.1948 54.3661 64.1374 55.1888C63.456 55.7236 62.9597 56.2931 62.6381 56.8795C62.3166 57.4659 62.1774 58.0414 62.1469 58.6012C62.1342 59.1508 62.2126 59.6949 62.4175 60.2131L64.7713 59.3492C64.5542 58.9323 64.4738 58.5073 64.558 58.0814C64.6422 57.6556 64.9012 57.2468 65.3983 56.8419C65.9131 56.4268 66.3885 56.2702 66.8115 56.3089C67.2448 56.3652 67.6054 56.5814 67.8932 56.9574L68.2498 57.4116L66.067 59.1434C65.474 59.6272 65.0103 60.1307 64.6962 60.6892C64.3822 61.2477 64.2327 61.8055 64.2683 62.3979C64.2936 62.9727 64.5291 63.544 64.9721 64.0662C65.4076 64.6163 65.8954 64.9712 66.4634 65.1384C67.0314 65.3055 67.6089 65.3257 68.221 65.1609C68.8331 64.9961 69.4193 64.7048 69.9769 64.2414C70.527 63.806 70.9126 63.3712 71.0981 62.9576C71.2837 62.544 71.3808 62.1814 71.3515 61.8447C71.3221 61.5081 71.2982 61.2625 71.2342 61.1109L71.5395 60.8639C71.807 61.2045 72.1267 61.35 72.547 61.3431C72.9674 61.3361 73.3591 61.1571 73.7528 60.8591L75.0979 59.7996L73.7812 58.1315L73.1352 58.646L73.1529 58.6358ZM70.0425 60.7616C69.9413 61.3623 69.6068 61.8854 69.039 62.3311C68.6201 62.6673 68.2182 62.8286 67.8434 62.8328C67.4686 62.837 67.1666 62.6813 66.9577 62.4012C66.7488 62.121 66.6562 61.7973 66.7282 61.4728C66.8178 61.1381 67.047 60.8408 67.4128 60.5353L69.4467 58.9131L69.5488 59.0899C69.9815 59.5945 70.1613 60.1508 70.0425 60.7616Z" fill="#282C6E"/>
<path d="M83.6742 42.5183L84.0333 42.4053L89.32 54.1346L93.789 52.851L91.6514 38.5727L89.0792 39.3034L91.1829 51.6446L90.8135 51.7399L85.6623 40.286L81.1756 41.5798L82.882 54.0088L82.5229 54.1218L77.7587 42.5624L75.1865 43.293L80.9484 56.5397L85.4175 55.2561L83.6742 42.5183Z" fill="#282C6E"/>
<path d="M96.1953 47.8312C96.1698 48.9304 96.3817 49.869 96.8308 50.6469C97.28 51.4249 97.893 52.0376 98.7053 52.4644C99.4897 52.8839 100.4 53.1128 101.415 53.1159C102.423 53.1468 103.327 52.9554 104.153 52.5491C104.961 52.153 105.612 51.5651 106.087 50.7956C106.563 50.0262 106.809 49.1058 106.835 48.0067L106.833 47.6775C106.859 46.5783 106.629 45.6499 106.198 44.8617C105.749 44.0838 105.136 43.4711 104.323 43.0442C103.539 42.6248 102.629 42.3959 101.613 42.3928C100.598 42.3897 99.702 42.5533 98.8757 42.9596C98.0671 43.3557 97.4164 43.9436 96.931 44.6953C96.4558 45.4648 96.2091 46.3851 96.1836 47.4843L96.1851 47.8135L96.1953 47.8312ZM98.7834 47.8222L98.7799 47.612C98.796 46.6598 99.0637 45.9394 99.6009 45.4406C100.138 44.9419 100.79 44.6832 101.578 44.7C102.383 44.7065 103.04 44.9872 103.529 45.5067C104.035 46.016 104.264 46.7798 104.266 47.7218L104.269 47.932C104.253 48.8842 103.985 49.6046 103.448 50.1034C102.911 50.6021 102.259 50.8608 101.471 50.8441C100.683 50.8273 100.036 50.5643 99.5201 50.0373C99.0138 49.528 98.7674 48.7745 98.7834 47.8222Z" fill="#282C6E"/>
<path d="M110.88 53.993L112.152 48.3553C112.311 47.6506 112.63 47.1832 113.118 46.9252C113.616 46.685 114.17 46.6243 114.819 46.7683L116.043 47.0515L116.54 44.8081L115.343 44.5323C114.89 44.4407 114.477 44.4197 114.1 44.5429C113.723 44.6662 113.408 44.8955 113.174 45.2663L112.821 45.1868L113.075 44.074L110.608 43.5177L108.376 53.4116L110.898 53.9828L110.88 53.993Z" fill="#282C6E"/>
<path d="M117.97 56.1469L119.587 52.4551L119.935 52.608L121.568 57.7238L124.603 59.06L122.269 52.3216L128.542 49.7131L125.47 48.3517L120.893 50.4284L120.555 50.2931L123.752 43.0489L121.384 42.011L115.621 55.0988L117.97 56.1469Z" fill="#282C6E"/>
<path d="M128.741 55.1619C128.774 55.7088 128.972 56.2549 129.306 56.7928C129.64 57.3307 130.065 57.8632 130.554 58.3827L130.963 58.8063C131.383 59.2476 131.661 59.606 131.789 59.9093C131.917 60.2126 131.888 60.4888 131.701 60.7378C131.515 60.9868 131.24 61.1222 130.893 61.1339C130.546 61.1456 130.114 60.9702 129.627 60.6153C129.301 60.3787 129.04 60.1292 128.848 59.8388C128.657 59.5484 128.537 59.2172 128.507 58.8805C128.485 58.516 128.572 58.1357 128.783 57.684L126.497 56.7876C126.015 57.7495 125.964 58.7222 126.305 59.6805C126.646 60.6387 127.357 61.5016 128.436 62.2692C129.488 63.0293 130.497 63.3895 131.457 63.3776C132.417 63.3657 133.213 62.9064 133.829 62.0553C134.252 61.4811 134.419 60.9131 134.369 60.3764C134.318 59.8398 134.111 59.276 133.731 58.7408C133.369 58.1954 132.906 57.6378 132.369 57.0755L131.959 56.6519C131.628 56.3241 131.399 56.0086 131.271 55.7053C131.143 55.4019 131.183 55.1435 131.359 54.8768C131.527 54.638 131.785 54.5128 132.079 54.5317C132.39 54.5404 132.738 54.6934 133.139 54.9803C133.541 55.2672 133.808 55.6079 133.949 55.9744C134.09 56.341 134.062 56.7818 133.843 57.2614L136.215 58.0612C136.505 57.2571 136.484 56.4443 136.176 55.5847C135.868 54.725 135.247 53.9757 134.33 53.3264C133.354 52.6166 132.411 52.289 131.514 52.288C130.6 52.2971 129.847 52.7082 129.256 53.5212C128.868 54.075 128.681 54.6076 128.741 55.1619Z" fill="#282C6E"/>
<path d="M147.731 93.5648L148.248 102.791L150.691 102.653L150.318 96.1262L162.159 95.4429L162.015 92.744L147.731 93.5648Z" fill="#282C6E"/>
<path d="M159.608 105.521C159.277 105.806 159.089 106.174 159.025 106.635C158.972 107.114 159.087 107.518 159.337 107.869C159.605 108.21 159.983 108.416 160.462 108.47C160.958 108.513 161.363 108.397 161.704 108.13C162.034 107.845 162.222 107.477 162.276 106.998C162.322 106.547 162.224 106.132 161.946 105.774C161.679 105.433 161.301 105.227 160.822 105.173C160.325 105.13 159.921 105.246 159.59 105.531L159.608 105.521Z" fill="#282C6E"/>
<path d="M147.899 104.147L147.632 106.706L157.714 107.793L157.981 105.234L147.899 104.147Z" fill="#282C6E"/>
<path d="M156.762 113.128L157.4 110.638L155.338 110.131L154.701 112.62L146.928 110.672L146.301 113.18L154.074 115.128L153.425 117.719L155.496 118.244L156.156 115.671L157.54 116.027C157.931 116.131 158.091 116.369 157.994 116.731L157.566 118.44L159.627 118.947L160.277 116.356C160.448 115.715 160.367 115.125 160.064 114.64C159.768 114.127 159.272 113.8 158.603 113.621L156.783 113.163L156.762 113.128Z" fill="#282C6E"/>
<path d="M150.475 121.756C150.848 122.035 151.098 122.386 151.242 122.798C151.368 123.221 151.296 123.71 151.01 124.276C150.716 124.87 150.381 125.228 149.969 125.372C149.557 125.516 149.134 125.477 148.71 125.274L148.192 125.03L149.387 122.526C149.72 121.838 149.9 121.168 149.935 120.535C149.97 119.902 149.854 119.333 149.585 118.827C149.317 118.322 148.855 117.929 148.223 117.61C147.601 117.309 147 117.208 146.411 117.289C145.831 117.388 145.305 117.621 144.836 118.033C144.367 118.445 143.959 118.964 143.65 119.614C143.342 120.263 143.2 120.793 143.21 121.259C143.219 121.725 143.287 122.087 143.45 122.37C143.613 122.653 143.736 122.865 143.871 122.976L143.7 123.333C143.332 123.145 142.957 123.149 142.593 123.336C142.24 123.54 141.947 123.85 141.719 124.312L140.979 125.848L142.9 126.766L143.248 126.022C143.401 125.675 143.68 125.585 144.048 125.773L147.448 127.417C148.588 127.961 149.626 128.045 150.562 127.623C151.507 127.219 152.263 126.405 152.84 125.2C153.214 124.418 153.408 123.693 153.451 123.032C153.493 122.371 153.367 121.784 153.144 121.276C152.922 120.768 152.593 120.321 152.214 119.95L150.464 121.738L150.475 121.756ZM146.279 124.084C145.667 123.801 145.293 123.357 145.121 122.772C144.948 122.188 145.039 121.57 145.348 120.92C145.584 120.43 145.866 120.103 146.205 119.954C146.543 119.806 146.872 119.804 147.202 119.967C147.532 120.131 147.739 120.365 147.796 120.709C147.871 121.043 147.784 121.423 147.591 121.865L146.469 124.21L146.281 124.13L146.279 124.084Z" fill="#282C6E"/>
<path d="M147.524 130.202L145.994 132.288L139.525 127.536L138.012 129.611L144.453 134.356L142.88 136.49L144.592 137.741L146.165 135.607L147.314 136.453C147.639 136.689 147.701 136.96 147.464 137.285L146.425 138.711L148.137 139.962L149.711 137.827C150.108 137.291 150.258 136.734 150.177 136.144C150.078 135.564 149.764 135.062 149.2 134.657L147.688 133.549L149.201 131.473L147.489 130.222L147.524 130.202Z" fill="#282C6E"/>
<path d="M139.02 140.299C138.981 140.722 138.732 141.148 138.256 141.588C137.779 142.029 137.306 142.231 136.893 142.21C136.453 142.181 136.085 141.993 135.761 141.637L135.37 141.204L137.425 139.333C137.998 138.814 138.413 138.268 138.699 137.702C138.975 137.118 139.079 136.563 139.026 135.981C138.955 135.409 138.684 134.858 138.223 134.346C137.763 133.834 137.24 133.499 136.674 133.378C136.099 133.239 135.524 133.264 134.915 133.474C134.323 133.674 133.767 134.019 133.22 134.5C132.69 134.971 132.343 135.431 132.185 135.852C132.028 136.273 131.958 136.643 131.988 136.979C132.035 137.306 132.076 137.541 132.151 137.711L131.855 137.975C131.581 137.662 131.233 137.51 130.815 137.562C130.415 137.604 130.024 137.783 129.65 138.117L128.384 139.272L129.814 140.851L130.422 140.311C130.7 140.057 130.976 140.086 131.258 140.371L133.796 143.173C134.648 144.119 135.59 144.566 136.613 144.541C137.636 144.516 138.641 144.053 139.63 143.152C140.281 142.564 140.739 141.97 141.005 141.368C141.271 140.767 141.4 140.174 141.385 139.617C141.369 139.06 141.228 138.529 141.015 138.038L138.726 139.054C138.96 139.461 139.069 139.893 139.03 140.316L139.02 140.299ZM133.967 139.632C133.517 139.138 133.319 138.592 133.393 137.984C133.466 137.376 133.762 136.827 134.292 136.356C134.69 135.985 135.072 135.788 135.447 135.784C135.811 135.762 136.121 135.89 136.375 136.167C136.63 136.445 136.712 136.751 136.64 137.075C136.578 137.417 136.37 137.75 136.004 138.056L134.087 139.799L133.95 139.642L133.967 139.632Z" fill="#282C6E"/>
<path d="M120.892 157.083L120.543 157.214L114.546 145.847L110.149 147.419L113.172 161.516L115.698 160.624L112.835 148.438L113.177 148.335L119.038 159.426L123.445 157.872L120.959 145.563L121.308 145.432L126.785 156.674L129.311 155.782L122.74 142.931L118.333 144.486L120.892 157.083Z" fill="#282C6E"/>
<path d="M107.273 149.787C106.77 149.04 106.115 148.475 105.287 148.104C104.46 147.733 103.563 147.567 102.55 147.61C101.537 147.652 100.647 147.907 99.8589 148.339C99.0707 148.77 98.4683 149.401 98.0312 150.195C97.5941 150.99 97.4135 151.943 97.4512 153.029L97.4704 153.348C97.5081 154.434 97.8009 155.35 98.2854 156.107C98.7876 156.855 99.4435 157.419 100.271 157.79C101.098 158.161 102.013 158.317 103.008 158.284C104.021 158.242 104.911 157.987 105.699 157.556C106.477 157.107 107.09 156.494 107.527 155.699C107.964 154.904 108.145 153.951 108.107 152.865L108.088 152.546C108.032 151.47 107.757 150.545 107.273 149.787ZM105.511 152.738L105.514 152.948C105.544 153.897 105.332 154.633 104.843 155.174C104.344 155.698 103.712 155.992 102.909 156.031C102.107 156.07 101.435 155.845 100.911 155.346C100.369 154.857 100.087 154.124 100.04 153.185L100.037 152.975C100.007 152.025 100.219 151.29 100.708 150.748C101.197 150.207 101.839 149.93 102.641 149.891C103.426 149.862 104.098 150.087 104.64 150.576C105.181 151.065 105.481 151.788 105.511 152.738Z" fill="#282C6E"/>
<path d="M93.0223 147.359L92.1107 153.048C92.0075 153.768 91.6982 154.253 91.231 154.546C90.7638 154.839 90.1918 154.91 89.5633 154.801L88.3165 154.602L87.9492 156.865L89.1681 157.057C89.6293 157.121 90.0395 157.096 90.4162 156.973C90.793 156.85 91.0881 156.585 91.2941 156.207L91.6539 156.258L91.4843 157.394L93.9779 157.793L95.5718 147.773L93.0223 147.359Z" fill="#282C6E"/>
<path d="M85.8125 145.651L84.4391 149.438L84.084 149.313L82.1371 144.307L79.0222 143.159L81.7688 149.754L75.6917 152.744L78.8345 153.9L83.2658 151.53L83.6032 151.665L80.8835 159.082L83.3059 159.97L88.2349 146.539L85.8125 145.651Z" fill="#282C6E"/>
<path d="M75.1458 147.306C75.0674 146.762 74.8523 146.226 74.4828 145.709C74.1133 145.191 73.6629 144.697 73.139 144.198L72.7042 143.813C72.2593 143.409 71.9538 143.043 71.8183 142.768C71.6727 142.475 71.6841 142.209 71.8602 141.942C72.0363 141.676 72.2838 141.533 72.6382 141.493C72.9926 141.454 73.4136 141.611 73.9266 141.928C74.2593 142.137 74.5389 142.376 74.7478 142.656C74.9744 142.926 75.0949 143.257 75.1521 143.602C75.1917 143.956 75.1429 144.361 74.96 144.82L77.3008 145.567C77.7167 144.573 77.7225 143.603 77.3005 142.668C76.8785 141.733 76.1253 140.918 75.013 140.216C73.9109 139.532 72.8864 139.228 71.9396 139.303C70.9752 139.389 70.2176 139.873 69.6493 140.767C69.2645 141.366 69.1252 141.942 69.2036 142.486C69.282 143.03 69.5427 143.563 69.9401 144.088C70.3552 144.603 70.826 145.133 71.4057 145.647L71.8404 146.032C72.1888 146.35 72.4358 146.655 72.5889 146.92C72.742 147.185 72.7231 147.479 72.547 147.746C72.3886 148.003 72.1588 148.135 71.8574 148.144C71.5561 148.153 71.1731 148.021 70.7643 147.762C70.3554 147.503 70.0526 147.182 69.894 146.826C69.7354 146.47 69.736 146.021 69.9263 145.534L67.4999 144.884C67.2655 145.703 67.3324 146.513 67.6931 147.342C68.0539 148.171 68.718 148.872 69.6779 149.473C70.7038 150.107 71.6548 150.406 72.556 150.334C73.4572 150.262 74.1896 149.815 74.7328 148.959C75.0925 148.398 75.2419 147.84 75.1533 147.279L75.1458 147.306Z" fill="#282C6E"/>
<path d="M137.958 96.8498C138.266 99.548 138.245 102.248 137.948 104.918C133.578 103.882 128.992 106.27 127.416 110.645C125.837 114.975 127.788 119.742 131.834 121.768C130.357 123.988 128.606 126.06 126.635 127.953C123.949 124.363 118.897 123.249 114.901 125.556C110.905 127.863 109.345 132.795 111.11 136.915C108.495 137.694 105.851 138.137 103.172 138.316C103.423 133.809 100.27 129.736 95.731 128.938C91.1817 128.123 86.8104 130.883 85.5052 135.196C83.0541 134.136 80.7132 132.776 78.5334 131.206C81.6108 127.92 81.8132 122.758 78.8649 119.203C75.8812 115.668 70.7449 114.98 67.0054 117.445C65.7688 114.977 64.8483 112.443 64.2544 109.863C68.7318 109.329 72.2274 105.542 72.2144 100.906C72.2013 96.2689 68.7251 92.4529 64.2759 91.9333C64.9151 89.3246 65.8407 86.7628 67.0227 84.3593C70.7944 86.8496 75.9295 86.148 78.8817 82.6047C81.8516 79.0512 81.6439 73.9139 78.565 70.6228C79.6252 69.8457 80.7615 69.1189 81.9285 68.4452C83.0954 67.7714 84.293 67.1507 85.5315 66.6007C86.8422 70.9126 91.1874 73.6612 95.7497 72.866C100.312 72.0707 103.442 67.9771 103.181 63.4833C105.854 63.6613 108.535 64.1406 111.114 64.8914C109.332 69.0322 110.916 73.9406 114.915 76.2526C118.921 78.5367 123.951 77.4481 126.662 73.8553C128.582 75.67 130.316 77.7338 131.843 80.0112C127.82 82.0272 125.849 86.8197 127.453 91.1506C129.022 95.5018 133.584 97.8898 137.986 96.8573L137.958 96.8498Z" fill="#282C6E"/>
<path d="M98.2616 115.478C96.7764 116.335 94.8316 115.784 93.9332 114.228L88.1145 104.15C87.8688 103.561 87.8658 102.902 88.152 102.336L93.5612 90.9621C93.7216 90.5866 94.0215 90.2485 94.3928 90.0341C94.7641 89.8197 95.2068 89.7291 95.6578 89.7752L108.231 90.7677C108.854 90.7852 109.488 91.1495 109.825 91.733L115.603 101.741C116.519 103.286 116.024 105.246 114.521 106.114L98.2895 115.485L98.2616 115.478Z" fill="#F8BF1B"/>
<path d="M108.671 92.47C108.559 92.2755 108.376 92.1218 108.128 92.1002L95.527 91.1003C95.2052 91.0738 94.9223 91.2372 94.7843 91.529L89.35 102.941C89.2446 103.167 89.2862 103.403 89.3985 103.597C89.4189 103.632 89.4039 103.688 89.4244 103.724L95.1002 113.554C95.6208 114.456 96.7289 114.783 97.5953 114.283L113.827 104.912C114.676 104.422 114.964 103.288 114.444 102.386L108.768 92.5557C108.768 92.5557 108.709 92.4952 108.671 92.47ZM95.9111 92.623L107.078 93.5078L105.555 97.4043L104.259 95.1588C104.055 94.8052 103.581 94.6781 103.227 94.8823L94.2096 100.089C93.856 100.293 93.7289 100.767 93.9331 101.12L95.2296 103.366L91.0939 102.736L95.9111 92.623ZM104.86 99.2206L102.791 104.54L97.1505 103.671L95.6294 101.037L103.339 96.5861L104.86 99.2206ZM113.145 103.16C113.247 103.336 113.233 103.557 113.092 103.638L96.8603 113.01C96.7189 113.091 96.5209 112.993 96.4188 112.817L91.5188 104.33L103.15 106.101C103.493 106.163 103.846 105.959 103.964 105.632L108.245 94.6726L113.145 103.16Z" fill="#2A2E6D"/>
<path d="M55.8032 136.997C51.3121 139.59 45.5668 138.051 42.9739 133.56C40.381 129.068 41.9204 123.323 46.4115 120.73C50.9026 118.137 56.6478 119.677 59.2408 124.168C61.8337 128.659 60.2942 134.404 55.8032 136.997Z" fill="#282C6E"/>
<path d="M53.9888 133.895C56.7621 132.294 57.7123 128.748 56.1111 125.975C54.51 123.201 50.9637 122.251 48.1904 123.852C45.4171 125.454 44.4669 129 46.0681 131.773C47.6693 134.546 51.2155 135.497 53.9888 133.895Z" fill="#EF4426"/>
<path d="M154.412 80.0652C149.921 82.6581 144.176 81.1187 141.583 76.6276C138.99 72.1366 140.529 66.3913 145.02 63.7984C149.511 61.2055 155.257 62.7449 157.85 67.236C160.443 71.727 158.903 77.4723 154.412 80.0652Z" fill="#282C6E"/>
<path d="M152.615 76.9533C155.389 75.3521 156.339 71.8059 154.738 69.0326C153.137 66.2593 149.59 65.3091 146.817 66.9103C144.044 68.5114 143.094 72.0577 144.695 74.831C146.296 77.6043 149.842 78.5545 152.615 76.9533Z" fill="#EF4426"/>
</g>
<rect x="-5.4641" y="72.0359" width="155" height="155" rx="77.5" transform="rotate(-30 -5.4641 72.0359)" stroke="white" stroke-width="8"/>
<defs>
<clipPath id="clip0_2051_6">
<rect y="73.5" width="147" height="147" rx="73.5" transform="rotate(-30 0 73.5)" fill="white"/>
</clipPath>
</defs>
</svg>
